<mxfile host="Electron" agent="Mozilla/5.0 (Windows NT 10.0; Win64; x64) AppleWebKit/537.36 (KHTML, like Gecko) draw.io/26.0.16 Chrome/132.0.6834.196 Electron/34.2.0 Safari/537.36" version="26.0.16">
  <diagram name="Página-1" id="AIR26q5ND35T9syDeKv0">
    <mxGraphModel dx="1050" dy="780" grid="1" gridSize="10" guides="1" tooltips="1" connect="1" arrows="1" fold="1" page="1" pageScale="1" pageWidth="827" pageHeight="1169" math="0" shadow="0">
      <root>
        <mxCell id="0" />
        <mxCell id="1" parent="0" />
        <mxCell id="ylM8UsR_lH6cDbZCqoQE-8" style="edgeStyle=orthogonalEdgeStyle;rounded=0;orthogonalLoop=1;jettySize=auto;html=1;exitX=0.5;exitY=1;exitDx=0;exitDy=0;entryX=0.5;entryY=0;entryDx=0;entryDy=0;" edge="1" parent="1" source="ylM8UsR_lH6cDbZCqoQE-1" target="ylM8UsR_lH6cDbZCqoQE-2">
          <mxGeometry relative="1" as="geometry">
            <mxPoint x="70" y="180" as="targetPoint" />
          </mxGeometry>
        </mxCell>
        <mxCell id="ylM8UsR_lH6cDbZCqoQE-9" style="edgeStyle=orthogonalEdgeStyle;rounded=0;orthogonalLoop=1;jettySize=auto;html=1;exitX=0.5;exitY=1;exitDx=0;exitDy=0;entryX=0.5;entryY=0;entryDx=0;entryDy=0;" edge="1" parent="1" source="ylM8UsR_lH6cDbZCqoQE-1" target="ylM8UsR_lH6cDbZCqoQE-3">
          <mxGeometry relative="1" as="geometry" />
        </mxCell>
        <mxCell id="ylM8UsR_lH6cDbZCqoQE-10" style="edgeStyle=orthogonalEdgeStyle;rounded=0;orthogonalLoop=1;jettySize=auto;html=1;exitX=0.5;exitY=1;exitDx=0;exitDy=0;entryX=0.5;entryY=0;entryDx=0;entryDy=0;" edge="1" parent="1" source="ylM8UsR_lH6cDbZCqoQE-1" target="ylM8UsR_lH6cDbZCqoQE-6">
          <mxGeometry relative="1" as="geometry" />
        </mxCell>
        <mxCell id="ylM8UsR_lH6cDbZCqoQE-11" style="edgeStyle=orthogonalEdgeStyle;rounded=0;orthogonalLoop=1;jettySize=auto;html=1;exitX=0.5;exitY=1;exitDx=0;exitDy=0;entryX=0.5;entryY=0;entryDx=0;entryDy=0;" edge="1" parent="1" source="ylM8UsR_lH6cDbZCqoQE-1" target="ylM8UsR_lH6cDbZCqoQE-7">
          <mxGeometry relative="1" as="geometry" />
        </mxCell>
        <mxCell id="ylM8UsR_lH6cDbZCqoQE-1" value="Atribuir um aluno a um instrutor" style="rounded=0;whiteSpace=wrap;html=1;" vertex="1" parent="1">
          <mxGeometry x="360" y="40" width="160" height="80" as="geometry" />
        </mxCell>
        <mxCell id="ylM8UsR_lH6cDbZCqoQE-2" value="Abrir notificação de registo de aula" style="rounded=0;whiteSpace=wrap;html=1;" vertex="1" parent="1">
          <mxGeometry y="200" width="160" height="80" as="geometry" />
        </mxCell>
        <mxCell id="ylM8UsR_lH6cDbZCqoQE-12" style="edgeStyle=orthogonalEdgeStyle;rounded=0;orthogonalLoop=1;jettySize=auto;html=1;exitX=0.5;exitY=1;exitDx=0;exitDy=0;entryX=0.5;entryY=0;entryDx=0;entryDy=0;" edge="1" parent="1" source="ylM8UsR_lH6cDbZCqoQE-3" target="ylM8UsR_lH6cDbZCqoQE-5">
          <mxGeometry relative="1" as="geometry" />
        </mxCell>
        <mxCell id="ylM8UsR_lH6cDbZCqoQE-3" value="Verificar disponibilidade instrutores" style="rounded=0;whiteSpace=wrap;html=1;" vertex="1" parent="1">
          <mxGeometry x="240" y="200" width="160" height="80" as="geometry" />
        </mxCell>
        <mxCell id="ylM8UsR_lH6cDbZCqoQE-5" value="Abrir aba instrutores" style="rounded=0;whiteSpace=wrap;html=1;" vertex="1" parent="1">
          <mxGeometry x="240" y="320" width="160" height="80" as="geometry" />
        </mxCell>
        <mxCell id="ylM8UsR_lH6cDbZCqoQE-6" value="Selecionar instrutor" style="rounded=0;whiteSpace=wrap;html=1;" vertex="1" parent="1">
          <mxGeometry x="480" y="200" width="160" height="80" as="geometry" />
        </mxCell>
        <mxCell id="ylM8UsR_lH6cDbZCqoQE-7" value="Clicar em salvar" style="rounded=0;whiteSpace=wrap;html=1;" vertex="1" parent="1">
          <mxGeometry x="720" y="200" width="160" height="80" as="geometry" />
        </mxCell>
      </root>
    </mxGraphModel>
  </diagram>
</mxfile>
